<?xml version="1.0" standalone="no"?>
<!DOCTYPE svg PUBLIC "-//W3C//DTD SVG 20010904//EN"
 "http://www.w3.org/TR/2001/REC-SVG-20010904/DTD/svg10.dtd">
<svg version="1.0" xmlns="http://www.w3.org/2000/svg"
 width="60.000000pt" height="60.000000pt" viewBox="0 0 60.000000 60.000000"
 preserveAspectRatio="xMidYMid meet">

<g transform="translate(0.000000,60.000000) scale(0.100000,-0.100000)"
fill="#000000" stroke="none">
<path d="M525 558 c-11 -6 -39 -28 -62 -50 -51 -46 -107 -54 -116 -16 -6 21
-7 21 -25 5 -24 -22 -82 -23 -82 -2 0 18 -21 20 -37 4 -8 -8 -45 -11 -102 -10
-50 1 -91 -1 -91 -6 0 -4 57 -23 128 -42 120 -32 182 -55 182 -67 0 -3 -21
-27 -46 -54 -26 -27 -53 -58 -61 -70 -11 -16 -25 -20 -73 -20 -75 0 -87 -17
-20 -26 44 -6 51 -10 47 -26 -4 -15 -1 -18 13 -13 15 5 19 -2 25 -45 4 -27 10
-50 15 -50 4 0 10 29 14 65 6 61 9 67 53 108 26 23 56 51 66 61 19 18 20 18
33 1 13 -17 36 -88 79 -238 9 -32 19 -56 22 -53 3 3 5 46 4 95 -1 53 2 92 9
96 15 9 12 35 -5 35 -20 0 -20 63 0 80 14 12 13 15 -5 32 -32 30 -25 65 25
119 56 60 62 115 10 87z"/>
</g>
</svg>
